<svg width="17" height="13" viewBox="0 0 17 13" fill="none" xmlns="http://www.w3.org/2000/svg">
<path d="M6.55285 0.289632C6.94044 -0.097827 7.56887 -0.0976954 7.95633 0.289632C8.34406 0.677355 8.34406 1.30565 7.9562 1.69338L4.14248 5.50696L15.1863 5.50802C15.7344 5.50815 16.1786 5.95238 16.1786 6.50075C16.1785 7.04886 15.7342 7.49295 15.1861 7.49295L4.14195 7.49189L7.9566 11.3063C8.34419 11.6939 8.34419 12.3224 7.9566 12.7099C7.76273 12.9036 7.5088 13.0006 7.25472 13.0006C7.00079 13.0006 6.74685 12.9036 6.55298 12.71L1.04427 7.20143C0.85808 7.01538 0.75354 6.76303 0.75354 6.49969C0.753672 6.23636 0.858212 5.98414 1.0444 5.79769L6.55285 0.289632Z" fill="black"/>
</svg>
